#!OML:ASF F:\VICON\USERDATA\INSTALL\rory3\rory3.ASF
:FULLY-SPECIFIED
:DEGREES
172
root 12.457 17.4608 -8.93526 7.16026 -55.9965 -6.52964
lowerback 9.29653 3.62014 4.312
upperback 1.62919 5.23784 1.15581
thorax -3.22371 2.5442 -1.82267
lowerneck -19.3113 -3.69644 -9.88285
upperneck 30.1256 -4.35469 6.36044
head 13.8391 -2.25919 3.46056
rclavicle 1.73937e-015 -9.93923e-015
rhumerus -36.477 -1.99554 -81.8927
rradius 29.8151
rwrist 6.56971
rhand -15.6414 11.5022
rfingers 7.12502
rthumb 10.5461 -18.2132
lclavicle 1.73937e-015 -9.93923e-015
lhumerus -44.4549 6.46047 78.4263
lradius 30.1804
lwrist -7.02127
lhand -11.8058 25.7677
lfingers 7.12502
lthumb 14.2441 55.2592
rfemur 16.5198 2.35811 28.8292
rtibia 8.92603
rfoot -17.4385 -2.25817
rtoes -5.73599
lfemur -32.4148 -6.57263 -9.38753
ltibia 15.0055
lfoot -11.8091 13.4209
ltoes -18.1715
173
root 12.3813 17.4539 -8.85454 7.4947 -56.0978 -6.74792
lowerback 9.31352 3.59783 4.28328
upperback 1.46659 5.21791 1.24165
thorax -3.41451 2.52852 -1.72502
lowerneck -19.1498 -3.63359 -9.98221
upperneck 30.0411 -4.22963 6.32519
head 13.7566 -2.22298 3.48355
rclavicle -3.39922e-014 -7.7526e-015
rhumerus -36.6014 -1.80664 -81.9034
rradius 29.726
rwrist 6.70242
rhand -15.6834 11.4288
rfingers 7.12502
rthumb 10.5055 -18.2887
lclavicle -3.39922e-014 -7.7526e-015
lhumerus -44.7985 6.73445 78.3422
lradius 30.3596
lwrist -6.82137
lhand -12.0905 25.8138
lfingers 7.12502
lthumb 13.9698 55.3244
rfemur 16.8217 2.39544 28.8434
rtibia 8.7572
rfoot -17.089 -2.10827
rtoes -6.812
lfemur -32.3374 -6.22152 -9.44432
ltibia 14.9048
lfoot -11.6046 13.0592
ltoes -18.9583
174
root 12.3006 17.45 -8.76903 7.67728 -56.1606 -6.79676
lowerback 9.04334 3.62209 4.44613
upperback 1.55291 5.24283 1.11675
thorax -3.14665 2.54724 -1.92168
lowerneck -19.3636 -3.69848 -9.98961
upperneck 29.9312 -4.32372 6.43308
head 13.7685 -2.24263 3.50858
rclavicle 5.60573e-014 -3.97569e-015
rhumerus -36.2882 -2.37751 -81.8977
rradius 29.4404
rwrist 7.25572
rhand -15.7841 11.7171
rfingers 7.12502
rthumb 10.4084 -18.0053
lclavicle 5.60573e-014 -3.97569e-015
lhumerus -44.504 6.66178 78.2451
lradius 30.3797
lwrist -6.42468
lhand -12.2372 25.9692
lfingers 7.12502
lthumb 13.8284 55.4895
rfemur 17.0442 2.39246 28.7273
rtibia 8.78769
rfoot -16.8834 -1.93394
rtoes -6.95889
lfemur -32.2118 -6.4443 -9.37829
ltibia 14.7436
lfoot -11.4044 13.2034
ltoes -19.1822
175
root 12.2176 17.4497 -8.67607 7.64741 -56.3548 -6.71622
lowerback 9.04317 3.66902 4.39236
upperback 1.48624 5.30191 1.05942
thorax -3.21172 2.57494 -1.96023
lowerneck -19.5299 -3.65014 -9.88979
upperneck 30.1362 -4.27438 6.40755
head 13.8837 -2.21511 3.49516
rclavicle -3.58309e-014 -1.98785e-014
rhumerus -36.3811 -2.33815 -81.9621
rradius 29.2835
rwrist 7.32381
rhand -15.8097 11.7891
rfingers 7.12502
rthumb 10.3837 -17.9345
lclavicle -3.58309e-014 -1.98785e-014
lhumerus -44.5342 6.94761 78.0593
lradius 30.2741
lwrist -6.33364
lhand -12.7083 25.9994
lfingers 7.12502
lthumb 13.3744 55.5501
rfemur 17.3311 2.50271 28.4908
rtibia 8.93706
rfoot -16.5811 -1.82674
rtoes -8.16421
lfemur -31.8463 -7.01975 -9.25415
ltibia 14.5167
lfoot -11.4415 13.5962
ltoes -17.8395
176
root 12.1335 17.4526 -8.57956 7.68951 -56.5675 -6.66142
lowerback 8.89677 3.78744 4.39639
upperback 1.47069 5.45081 0.995681
thorax -3.13074 2.65119 -2.03254
lowerneck -19.6252 -3.65804 -9.68122
upperneck 30.1864 -4.29716 6.24723
head 13.9183 -2.22137 3.39057
rclavicle 3.57315e-014 -6.95746e-015
rhumerus -36.4214 -2.42531 -81.9736
rradius 29.1799
rwrist 7.18339
rhand -15.5712 11.8739
rfingers 7.12502
rthumb 10.6138 -17.8381
lclavicle 3.57315e-014 -6.95746e-015
lhumerus -44.4834 7.16511 77.9327
lradius 30.1667
lwrist -6.68703
lhand -13.0023 25.6935
lfingers 7.12502
lthumb 13.091 55.2626
rfemur 17.5948 2.6462 28.2463
rtibia 9.08888
rfoot -16.1737 -1.50145
rtoes -8.8068
lfemur -31.5187 -7.29424 -9.27785
ltibia 14.3245
lfoot -11.3315 13.8263
ltoes -17.8414
